# xmcd
#
# Track frame offsets:
# 150
# 43097
# 64877
# 75437
# 93332
# 120137
# 162137
# 181892
# 198602
# 208202
# 232505
# 249137
# 274637
# 291697
# 306625
#
# Disc length: 4294 seconds
#
#
# Revision: 0
# Processed by: cddbd v1.5.1PL2 Copyright (c) Steve Scherf et al.
# Submitted via: FreeRIP 2.944 
#
DISCID=cc10c40f
DTITLE=Redgum - Caught In The Act
DYEAR=1983
DGENRE=Country
TTITLE0=Beaumont Rag
TTITLE1=The Last Frontier
TTITLE2=Brown Rice and Kerosine
TTITLE3=Nuclear Cop
TTITLE4=I Was Only 19 (A Walk In The Light Green)
TTITLE5=Caught In The Act
TTITLE6=Stewie
TTITLE7=Lear Jets Over Kulgera
TTITLE8=Fabulon
TTITLE9=The Diamantina Drover
TTITLE10=Where Ya Gonna Run To
TTITLE11=It Doesn't Matter to Me
TTITLE12=Long Run
TTITLE13=Poor Ned
TTITLE14=Raggin'
EXTD=
EXTT0=
EXTT1=
EXTT2=
EXTT3=
EXTT4=
EXTT5=
EXTT6=
EXTT7=
EXTT8=
EXTT9=
EXTT10=
EXTT11=
EXTT12=
EXTT13=
EXTT14=
PLAYORDER=
